<svg width="33" height="25" viewBox="0 0 33 25" fill="none" xmlns="http://www.w3.org/2000/svg">
<path d="M27.9541 2.09379C25.7899 1.10281 23.5004 0.398675 21.146 0C20.8528 0.518875 20.5101 1.21676 20.2738 1.77197C17.7354 1.39843 15.2203 1.39843 12.7286 1.77197C12.4924 1.21689 12.1421 0.518875 11.8461 0C9.48941 0.398858 7.19793 1.10479 5.03275 2.09897C0.724186 8.47093 -0.443833 14.6844 0.140112 20.81C2.99783 22.8985 5.76725 24.1673 8.49001 24.9975C9.16668 24.0868 9.76485 23.1226 10.2783 22.115C9.30074 21.7507 8.35831 21.3019 7.46224 20.7737C7.69805 20.6026 7.9283 20.4244 8.15266 20.2392C13.5825 22.7247 19.4822 22.7247 24.8473 20.2392C25.0726 20.4231 25.3028 20.6014 25.5376 20.7737C24.6401 21.3032 23.6959 21.753 22.7164 22.1176C23.2328 23.1294 23.8298 24.0945 24.5047 25C27.23 24.1699 30.002 22.9012 32.8597 20.81C33.545 13.709 31.6893 7.55252 27.9541 2.09379ZM11.0181 17.0429C9.3881 17.0429 8.05134 15.5536 8.05134 13.7402C8.05134 11.9267 9.35961 10.4349 11.0181 10.4349C12.6768 10.4349 14.0134 11.924 13.9849 13.7402C13.9875 15.5536 12.6768 17.0429 11.0181 17.0429ZM21.9817 17.0429C20.3517 17.0429 19.0151 15.5536 19.0151 13.7402C19.0151 11.9267 20.3232 10.4349 21.9817 10.4349C23.6404 10.4349 24.977 11.924 24.9485 13.7402C24.9485 15.5536 23.6404 17.0429 21.9817 17.0429Z" fill="white" fill-opacity="0.8"/>
</svg>
