<svg width="31" height="30" viewBox="0 0 31 30" fill="none" xmlns="http://www.w3.org/2000/svg">
<path d="M10.3687 24.156C10.3687 24.28 10.225 24.3793 10.0437 24.3793C9.83751 24.398 9.69376 24.2986 9.69376 24.156C9.69376 24.032 9.83751 23.9326 10.0188 23.9326C10.2063 23.914 10.3687 24.0133 10.3687 24.156ZM8.425 23.8768C8.38125 24.0008 8.50625 24.1436 8.69375 24.1808C8.85625 24.2428 9.04375 24.1808 9.08125 24.0567C9.11876 23.9326 9 23.79 8.8125 23.7342C8.65 23.6907 8.46875 23.7527 8.425 23.8768ZM11.1875 23.7713C11.0062 23.8148 10.8813 23.9326 10.9 24.0753C10.9187 24.1994 11.0813 24.28 11.2688 24.2367C11.45 24.1931 11.575 24.0754 11.5563 23.9513C11.5375 23.8334 11.3688 23.7527 11.1875 23.7713ZM15.3 0C6.63125 0 0 6.53216 0 15.1362C0 22.0158 4.3625 27.9028 10.5938 29.9747C11.3937 30.1174 11.675 29.6273 11.675 29.2242C11.675 28.8395 11.6563 26.718 11.6563 25.4153C11.6563 25.4153 7.28126 26.3457 6.36251 23.5666C6.36251 23.5666 5.65 21.7614 4.625 21.2962C4.625 21.2962 3.19374 20.3223 4.725 20.3408C4.725 20.3408 6.28125 20.4649 7.1375 21.9413C8.50625 24.3359 10.8 23.6473 11.6937 23.2379C11.8375 22.2453 12.2438 21.5567 12.6938 21.1473C9.2 20.7627 5.67501 20.2602 5.67501 14.2926C5.67501 12.5867 6.14999 11.7306 7.15 10.6388C6.9875 10.2356 6.45625 8.57307 7.31249 6.4267C8.61874 6.02348 11.625 8.10162 11.625 8.10162C12.875 7.75422 14.2188 7.57433 15.5499 7.57433C16.8813 7.57433 18.2251 7.75422 19.475 8.10162C19.475 8.10162 22.4813 6.01727 23.7875 6.4267C24.6437 8.57927 24.1125 10.2356 23.95 10.6388C24.95 11.7368 25.5625 12.5929 25.5625 14.2926C25.5625 20.2789 21.8812 20.7565 18.3875 21.1473C18.9625 21.6374 19.45 22.568 19.45 24.0257C19.45 26.1162 19.4312 28.703 19.4312 29.2118C19.4312 29.6149 19.7188 30.1049 20.5125 29.9623C26.7625 27.9028 31 22.0158 31 15.1362C31 6.53216 23.9688 0 15.3 0ZM6.075 21.3954C5.99374 21.4575 6.0125 21.6001 6.11876 21.718C6.21875 21.8173 6.3625 21.8607 6.44375 21.78C6.525 21.718 6.50626 21.5753 6.4 21.4575C6.3 21.3582 6.15625 21.3148 6.075 21.3954ZM5.4 20.893C5.35625 20.9736 5.41874 21.0728 5.54375 21.1349C5.64375 21.1969 5.76875 21.1783 5.8125 21.0915C5.85625 21.0109 5.79375 20.9115 5.66875 20.8496C5.54375 20.8123 5.44375 20.8309 5.4 20.893ZM7.42501 23.1014C7.32501 23.182 7.3625 23.3682 7.50625 23.486C7.65 23.6287 7.83125 23.6473 7.9125 23.548C7.99375 23.4674 7.95626 23.2813 7.83125 23.1633C7.69375 23.0207 7.50625 23.0022 7.42501 23.1014ZM6.7125 22.1895C6.6125 22.2515 6.6125 22.4128 6.7125 22.5555C6.8125 22.6981 6.98126 22.7602 7.0625 22.6981C7.1625 22.6175 7.1625 22.4562 7.0625 22.3136C6.975 22.1708 6.8125 22.1089 6.7125 22.1895Z" fill="white" fill-opacity="0.8"/>
</svg>
