<svg width="50" height="19" viewBox="0 0 50 19" fill="none" xmlns="http://www.w3.org/2000/svg">
<path fill-rule="evenodd" clip-rule="evenodd" d="M25 18.5185C30.1195 18.5185 34.2697 14.373 34.2697 9.25926C34.2697 4.14551 30.1195 0 25 0C19.8805 0 15.7303 4.14551 15.7303 9.25926C15.7303 14.373 19.8805 18.5185 25 18.5185ZM40.7304 18.5185C45.8499 18.5185 50 14.373 50 9.25926C50 4.14551 45.8499 0 40.7304 0C35.6109 0 31.4607 4.14551 31.4607 9.25926C31.4607 14.373 35.6109 18.5185 40.7304 18.5185ZM9.26967 18.5185C14.3892 18.5185 18.5393 14.373 18.5393 9.25926C18.5393 4.14551 14.3892 0 9.26967 0C4.15017 0 0 4.14551 0 9.25926C0 14.373 4.15017 18.5185 9.26967 18.5185Z" fill="white" fill-opacity="0.8"/>
</svg>
