<svg width="31" height="25" viewBox="0 0 31 25" fill="none" xmlns="http://www.w3.org/2000/svg">
<path d="M31 2.95944C29.8593 3.46137 28.6336 3.8006 27.3471 3.95321C28.6603 3.17214 29.6687 1.93527 30.1435 0.461557C28.8951 1.19671 27.5292 1.71468 26.1049 1.99307C24.9447 0.766537 23.2919 0 21.4625 0C17.9501 0 15.1023 2.82582 15.1023 6.3111C15.1023 6.80583 15.1586 7.28745 15.267 7.74949C9.98127 7.4862 5.29495 4.97366 2.15801 1.15527C1.61067 2.0874 1.29704 3.17165 1.29704 4.32813C1.29704 6.51779 2.41994 8.44945 4.12639 9.58129C3.11641 9.54991 2.12865 9.27921 1.24557 8.79181C1.24521 8.81824 1.24521 8.84468 1.24521 8.87124C1.24521 11.9291 3.43749 14.48 6.34689 15.0598C5.41033 15.3125 4.42795 15.3495 3.47479 15.1679C4.28405 17.6753 6.63291 19.4999 9.41589 19.551C7.23923 21.2436 4.49682 22.2527 1.51718 22.2527C1.00375 22.2527 0.497574 22.2227 0 22.1644C2.81458 23.9552 6.15762 25 9.74926 25C21.4478 25 27.8448 15.383 27.8448 7.04303C27.8448 6.7693 27.8387 6.49712 27.8264 6.22651C29.0715 5.3333 30.1462 4.22697 31 2.95944Z" fill="white" fill-opacity="0.8"/>
</svg>
