<svg width="35" height="25" viewBox="0 0 35 25" fill="none" xmlns="http://www.w3.org/2000/svg">
<path d="M13.9192 17.7734V7.23018L23.0669 12.5024L13.9192 17.7734ZM34.266 3.91128C33.8529 2.37301 32.686 1.18355 31.2028 0.762628L31.1713 0.755533C27.4452 0.275492 23.1357 0.00118228 18.762 0.00118228C18.3174 0.00118228 17.874 0.00354698 17.4317 0.00945883L17.4994 0.00827654C17.1237 0.00354707 16.6814 0 16.2368 0C11.8631 0 7.55126 0.274309 3.31877 0.805193L3.82523 0.753169C2.31171 1.18237 1.14477 2.37065 0.739839 3.87817L0.732838 3.90891C0.266062 6.40253 0 9.27213 0 12.2044C0 12.3085 5.44824e-08 12.4125 0.00116699 12.5154V12.4988C0.00116699 12.5863 0 12.6904 0 12.7944C0 15.7267 0.267229 18.5951 0.777181 21.3772L0.732838 21.0887C1.14593 22.627 2.31287 23.8165 3.79605 24.2374L3.82756 24.2445C7.5536 24.7245 11.8631 24.9988 16.2368 24.9988C16.6802 24.9988 17.1237 24.9965 17.5671 24.9905L17.4994 24.9917C17.8752 24.9965 18.3186 25 18.762 25C23.1369 25 27.4476 24.7257 31.6801 24.1948L31.1736 24.2468C32.6883 23.8188 33.8552 22.6294 34.2613 21.1218L34.2683 21.0911C34.7339 18.5975 35 15.7279 35 12.7968C35 12.6927 35 12.5887 34.9988 12.4858V12.5012C34.9988 12.4137 35 12.3096 35 12.2056C35 9.27332 34.7328 6.40489 34.2228 3.62278L34.266 3.91128Z" fill="white" fill-opacity="0.8"/>
</svg>
