<svg width="150" height="150" viewBox="0 0 150 150" fill="none" xmlns="http://www.w3.org/2000/svg">
<rect width="150" height="150" rx="75" fill="#141C22"/>
<g clip-path="url(#clip0_35_84)">
<mask id="mask0_35_84" style="mask-type:luminance" maskUnits="userSpaceOnUse" x="25" y="25" width="100" height="100">
<path d="M125 25H25V125H125V25Z" fill="white"/>
<path d="M110 84C114.971 84 119 79.9706 119 75C119 70.0294 114.971 66 110 66C105.029 66 101 70.0294 101 75C101 79.9706 105.029 84 110 84Z" fill="black"/>
<path d="M39 84C43.9706 84 48 79.9706 48 75C48 70.0294 43.9706 66 39 66C34.0294 66 30 70.0294 30 75C30 79.9706 34.0294 84 39 84Z" fill="black"/>
<path d="M110 66H39V84H110V66Z" fill="black"/>
</mask>
<g mask="url(#mask0_35_84)">
<path d="M75 125C102.614 125 125 102.614 125 75C125 47.3858 102.614 25 75 25C47.3858 25 25 47.3858 25 75C25 102.614 47.3858 125 75 125Z" fill="#F04847"/>
</g>
</g>
<defs>
<clipPath id="clip0_35_84">
<rect width="100" height="100" fill="white" transform="translate(25 25)"/>
</clipPath>
</defs>
</svg>
