<svg width="100" height="100" viewBox="0 0 100 100" fill="none" xmlns="http://www.w3.org/2000/svg">
<g clip-path="url(#clip0_30_70)">
<mask id="mask0_30_70" style="mask-type:luminance" maskUnits="userSpaceOnUse" x="0" y="0" width="100" height="100">
<path d="M100 0H0V100H100V0Z" fill="white"/>
<path d="M31 62C48.1208 62 62 48.1208 62 31C62 13.8792 48.1208 0 31 0C13.8792 0 0 13.8792 0 31C0 48.1208 13.8792 62 31 62Z" fill="black"/>
</mask>
<g mask="url(#mask0_30_70)">
<path d="M50 100C77.6142 100 100 77.6142 100 50C100 22.3858 77.6142 0 50 0C22.3858 0 0 22.3858 0 50C0 77.6142 22.3858 100 50 100Z" fill="#FBA71B"/>
</g>
</g>
<defs>
<clipPath id="clip0_30_70">
<rect width="100" height="100" fill="white"/>
</clipPath>
</defs>
</svg>
