<svg width="150" height="150" viewBox="0 0 150 150" fill="none" xmlns="http://www.w3.org/2000/svg">
<rect width="150" height="150" rx="75" fill="#141C22"/>
<g clip-path="url(#clip0_32_80)">
<mask id="mask0_32_80" style="mask-type:luminance" maskUnits="userSpaceOnUse" x="25" y="25" width="100" height="100">
<path d="M125 25H25V125H125V25Z" fill="white"/>
<path d="M56 87C73.1208 87 87 73.1208 87 56C87 38.8792 73.1208 25 56 25C38.8792 25 25 38.8792 25 56C25 73.1208 38.8792 87 56 87Z" fill="black"/>
</mask>
<g mask="url(#mask0_32_80)">
<path d="M75 125C102.614 125 125 102.614 125 75C125 47.3858 102.614 25 75 25C47.3858 25 25 47.3858 25 75C25 102.614 47.3858 125 75 125Z" fill="#FBA71B"/>
</g>
</g>
<defs>
<clipPath id="clip0_32_80">
<rect width="100" height="100" fill="white" transform="translate(25 25)"/>
</clipPath>
</defs>
</svg>
