<svg width="140" height="140" viewBox="0 0 140 140" fill="none" xmlns="http://www.w3.org/2000/svg">
<rect width="140" height="140" rx="70" fill="#141C22"/>
<g clip-path="url(#clip0_32_80)">
<mask id="mask0_32_80" style="mask-type:luminance" maskUnits="userSpaceOnUse" x="20" y="20" width="100" height="100">
<path d="M120 20H20V120H120V20Z" fill="white"/>
<path d="M51 82C68.1208 82 82 68.1208 82 51C82 33.8792 68.1208 20 51 20C33.8792 20 20 33.8792 20 51C20 68.1208 33.8792 82 51 82Z" fill="black"/>
</mask>
<g mask="url(#mask0_32_80)">
<path d="M70 120C97.6142 120 120 97.6142 120 70C120 42.3858 97.6142 20 70 20C42.3858 20 20 42.3858 20 70C20 97.6142 42.3858 120 70 120Z" fill="#FBA71B"/>
</g>
</g>
<defs>
<clipPath id="clip0_32_80">
<rect width="100" height="100" fill="white" transform="translate(20 20)"/>
</clipPath>
</defs>
</svg>
